<svg width="13" height="16" viewBox="0 0 13 16" fill="none" xmlns="http://www.w3.org/2000/svg">
<path d="M7.4935 3.03229C7.4935 3.76867 8.09046 4.36562 8.82681 4.36562H9.8868L3.80348 10.4489C3.54391 10.7085 3.54391 11.1294 3.80348 11.3889C4.06305 11.6485 4.48391 11.6485 4.74348 11.3889L10.8268 5.30562V7.03228C10.8268 7.40048 11.1253 7.69895 11.4935 7.69895C11.8616 7.69895 12.1601 7.40048 12.1601 7.03228V3.03229L7.4935 3.03229ZM10.8268 13.6989H1.49349V4.36562H5.49351C5.86166 4.36562 6.16016 4.06715 6.16016 3.69896C6.16016 3.33076 5.86166 3.03229 5.49351 3.03229H1.49349C1.13987 3.03229 0.800727 3.17276 0.550684 3.42281C0.300641 3.67287 0.160156 4.012 0.160156 4.36562V13.6989C0.160156 14.0526 0.300629 14.3917 0.550684 14.6418C0.800738 14.8918 1.13987 15.0323 1.49349 15.0323H10.8268C11.1805 15.0323 11.5196 14.8918 11.7697 14.6418C12.0197 14.3917 12.1602 14.0526 12.1602 13.6989V9.69894C12.1602 9.3308 11.8617 9.0323 11.4935 9.0323C11.1253 9.0323 10.8268 9.3308 10.8268 9.69894L10.8268 13.6989Z" fill="#6C86AD"/>
</svg>
